<svg width="1280" height="640" viewBox="0 0 1280 640" xmlns="http://www.w3.org/2000/svg">
  <defs>
    <linearGradient id="rgbGrad" x1="0%" y1="0%" x2="100%" y2="100%">
      <stop offset="0%" stop-color="#3b82f6"/>
      <stop offset="20%" stop-color="#8b5cf6"/>
      <stop offset="40%" stop-color="#ec4899"/>
      <stop offset="60%" stop-color="#f59e0b"/>
      <stop offset="80%" stop-color="#10b981"/>
      <stop offset="100%" stop-color="#3b82f6"/>
    </linearGradient>
    <radialGradient id="glowbg" cx="72%" cy="50%" r="55%">
      <stop offset="0%" stop-color="#10233a" stop-opacity="0.55"/>
      <stop offset="100%" stop-color="#05070d" stop-opacity="0"/>
    </radialGradient>
  </defs>

  <rect width="1280" height="640" fill="#05070d"/>
  <rect width="1280" height="640" fill="url(#glowbg)"/>
  <rect x="0" y="0" width="1280" height="6" fill="url(#rgbGrad)"/>

  <!-- fingerprint mark, scaled from the 32x32 brand favicon -->
  <g transform="translate(905,168) scale(9)" stroke-linecap="round" fill="none">
    <circle cx="16" cy="16" r="14" fill="url(#rgbGrad)" opacity="0.10" stroke="none"/>
    <path d="M16 4c0 8-6 12-6 20" stroke="url(#rgbGrad)" stroke-width="1.5" opacity="0.45"/>
    <path d="M16 4c0 6-4 10-4 16" stroke="url(#rgbGrad)" stroke-width="1.5" opacity="0.55"/>
    <path d="M16 6c0 4-2 8-2 12" stroke="url(#rgbGrad)" stroke-width="1.5" opacity="0.75"/>
    <path d="M16 4c0 8 6 12 6 20" stroke="url(#rgbGrad)" stroke-width="1.5" opacity="0.45"/>
    <path d="M16 4c0 6 4 10 4 16" stroke="url(#rgbGrad)" stroke-width="1.5" opacity="0.55"/>
    <path d="M16 6c0 4 2 8 2 12" stroke="url(#rgbGrad)" stroke-width="1.5" opacity="0.75"/>
    <ellipse cx="16" cy="14" rx="4" ry="6" stroke="url(#rgbGrad)" stroke-width="1.5" opacity="0.85"/>
    <ellipse cx="16" cy="14" rx="2" ry="3" stroke="url(#rgbGrad)" stroke-width="1.5"/>
    <circle cx="16" cy="13" r="1.5" fill="url(#rgbGrad)" stroke="none"/>
  </g>

  <g font-family="DejaVu Sans, Verdana, sans-serif">
    <text x="96" y="212" fill="#2dd4bf" font-size="26" font-weight="bold" letter-spacing="4">OPEN CONNECTOR PLATFORM</text>
    <text x="92" y="318" fill="#f4f6fb" font-size="92" font-weight="bold">DreamerOS</text>
    <text x="92" y="418" fill="#cfd6e2" font-size="92" font-weight="bold">Connectors</text>
    <text x="96" y="486" fill="#8b95a7" font-size="32">Build governed integrations for DreamerOS.</text>
    <text x="96" y="566" fill="#5c6678" font-size="24">github.com/gbude-sudo/DreamerOS-Live-</text>
    <text x="96" y="566" fill="#5c6678" font-size="24" text-anchor="end" dx="1088">MIT licensed</text>
  </g>
</svg>
